<?xml version="1.0" encoding="UTF-8"?>
<!DOCTYPE svg PUBLIC "-//W3C//DTD SVG 1.1//EN" "http://www.w3.org/Graphics/SVG/1.1/DTD/svg11.dtd">
<!-- Creator: CorelDRAW 2017 -->
<svg xmlns="http://www.w3.org/2000/svg" xml:space="preserve" width="3.70333in" height="2.08333in" version="1.1" style="shape-rendering:geometricPrecision; text-rendering:geometricPrecision; image-rendering:optimizeQuality; fill-rule:evenodd; clip-rule:evenodd"
viewBox="0 0 3703 2083"
 xmlns:xlink="http://www.w3.org/1999/xlink"
 enable-background="new 0 0 64 64">
 <defs>
  <style type="text/css">
   <![CDATA[
    .fil12 {fill:black}
    .fil6 {fill:#6D4122}
    .fil5 {fill:#91562D}
    .fil11 {fill:#9E9E9E}
    .fil4 {fill:#CFD8DC}
    .fil0 {fill:#E6E7E8}
    .fil3 {fill:whitesmoke}
    .fil8 {fill:#FDD834}
    .fil10 {fill:#FEC108}
    .fil9 {fill:#FFDC00}
    .fil7 {fill:#FFEB3A}
    .fil2 {fill:#373435;fill-opacity:0.031373}
    .fil1 {fill:#373435;fill-opacity:0.101961}
   ]]>
  </style>
 </defs>
 <g id="Layer_x0020_1">
  <metadata id="CorelCorpID_0Corel-Layer"/>
  <polygon class="fil0" points="-3,0 3706,0 3706,2083 -3,2083 "/>
  <path class="fil1" d="M2449 279l-120 92 -92 0 -100 78 26 -78 -208 0 -130 104 0 -7 78 -63 -4 3 0 0 6 -5 -8 6 -1 0 -7 4 -7 3 -7 3 -8 2 -8 1 -8 0 -8 0 -5 -1 47 -38 -4 3 -4 3 -5 2 -5 2 -5 1 -5 1 -5 0 -5 0 -5 -1 -5 -1 -5 -2 -5 -2 -4 -3 -4 -3 -4 -3 -3 -4 -3 -4 -3 -4 -2 -5 -2 -5 -1 -5 -1 -5 0 -5 0 -5 1 -5 1 -5 2 -5 2 -5 3 -4 3 -4 3 -4 4 -3 -46 38 0 -5 1 -8 2 -8 3 -7 3 -7 4 -7 5 -6 5 -6 6 -5 -108 89 -10 0 65 -54 3 -9 3 -8 4 -8 5 -8 5 -7 6 -7 6 -6 7 -6 -134 112 -111 0 -103 87 29 -87 -182 0 -60 52 -1 0 -7 1 -7 0 -7 0 -3 0 44 -38 -4 3 -4 3 -5 2 -5 2 -5 1 -5 1 -5 0 -5 0 -5 -1 -5 -1 -1 -1 34 -30 -2 2 -2 1 -2 1 -2 1 -3 1 -3 0 -3 0 -5 -1 -5 -2 -5 -2 -4 -3 -3 -4 -2 -5 -2 -5 -1 -5 1 -5 2 -5 2 -5 3 -4 -34 30 -1 -5 0 -5 0 -5 1 -5 1 -5 2 -5 2 -5 3 -4 3 -4 3 -4 4 -3 -47 41 0 0 0 -7 1 -7 2 -7 2 -7 3 -6 3 -6 4 -6 4 -5 5 -5 5 -5 -1159 1033 0 31 0 0 0 31 0 10 0 43 0 7 0 27 0 3 0 18 0 12 0 90 0 28 0 2 0 2 0 19 0 9 0 0 0 10 0 10 0 10 0 2 0 8 0 1 0 10 0 9 0 11 0 9 0 71 0 3 0 23 0 0 0 2 0 27 0 6 0 3 0 20 0 35 0 6 0 49 0 12 0 6 0 41 0 5 0 22 0 17 0 5 0 1 14 0 5 0 1 0 17 0 5 0 5 0 0 0 19 0 1 0 1 0 34 0 0 0 1 0 0 0 29 0 7 0 14 0 87 0 4 0 2 0 10 0 1 0 7 0 14 0 1 0 7 0 0 0 0 0 1 0 7 0 21 0 1 0 0 0 6 0 0 0 0 0 7 0 0 0 0 0 8 0 1 0 5 0 9 0 2 0 6 0 7 0 2 0 7 0 3 0 2 0 3 0 5 0 0 0 2 0 1 0 13 0 1 0 3 0 8 0 0 0 0 0 9 0 7 0 1 0 2 0 6 0 2 0 0 0 4 0 16 0 5 0 0 0 11 0 0 0 4 0 2 0 0 0 3 0 0 0 2 0 6 0 9 0 4 0 3 0 31 0 4 0 7 0 6 0 0 0 8 0 1 0 2 0 12 0 6 0 2 0 10 0 1 0 4 0 8 0 17 0 2 0 8 0 5 0 0 0 4 0 4 0 14 0 0 0 14 0 15 0 9 0 5 0 17 0 54 0 10 0 10 0 13 0 24 0 9 0 9 0 1 0 34 0 29 0 30 0 14 0 21 0 27 0 0 0 7 0 29 0 6 0 12 0 10 0 8 0 3 0 6 0 1 0 4 0 2 0 23 0 1 0 7 0 1 0 14 0 19 0 0 0 3 0 2 0 24 0 13 0 1 0 11 0 13 0 25 0 64 0 39 0 19 0 15 0 6 0 25 0 7 0 39 0 3 0 7 0 32 0 7 0 8 0 3 0 23 0 22 0 17 0 91 0 25 0 0 0 22 0 0 0 3 0 44 0 76 0 31 0 14 0 20 0 7 0 34 0 0 0 14 0 28 0 21 0 586 -354 -7 3 -7 3 -8 2 -8 1 -8 0 -29 0 55 -33 -5 2 -5 2 -5 1 -5 1 0 0 -5 0 -36 0 51 -31 -5 2 -5 2 -5 1 -34 0 1 -1 2 -5 2 -5 1 -5 1 -5 0 -5 0 -80 0 0 0 -804 -5 4 0 -1 -2 -3 -2 -3 -2 -3 -2 -3 -2 -3 -3 -2 -3 -2 -3 -2 -3 -2 0 -7 0 0 -80 57 0 -106 80 -58 0 0 -80 58 0 -58 0 -5 -1 -5 -1 -5 -2 -5 -2 -5 -3 -4 -3 -4 -3 -4 -4 -3 -4 -3 -4 -3 -5 -2 -5 -2 -5 -1 -5 -1 -5 0 -63 47 -7 -20 -144 107 -46 0 414 -310 -6 4 -6 3 -7 3 -7 2 -7 2 -7 1 -7 0 -7 0 -7 -1 -1 0 50 -37 -4 3 -4 3 -5 2 -5 2 -5 1 -5 1 -5 0 -5 0 -5 -1 -5 -1 -5 -2 0 0 36 -27 -5 2 -5 2 -5 1 -5 -1 -5 -2 -5 -2 -4 -3 -3 -4 -2 -5 -2 -5 -1 -5 1 -5 2 -5 2 -5 3 -4 4 -3 -38 29 0 -1 0 -5 0 -5 1 -5 1 -5 2 -5 2 -5 3 -4 3 -4 3 -4 4 -3 -89 68 -22 0 70 -54 3 -7 3 -6 4 -6 4 -6 5 -5 5 -5 5 -4zm19 307l0 0zm107 161l0 0z"/>
  <path class="fil2" d="M214 1826c7,11 12,21 16,33 3,7 5,19 21,19 5,0 11,-1 17,-5 7,-3 12,-9 14,-17l6 -21 15 -8 1 1c-2,8 -3,16 -3,21 0,18 15,24 27,24 7,0 13,-3 13,-10 0,-8 -4,-23 -8,-35 7,-7 14,-14 22,-20l1 1c4,15 6,30 6,40 0,10 -4,20 -8,27 -7,14 -20,25 -36,25 -12,0 -25,-6 -34,-17l-1 0c-9,11 -22,20 -43,20l-7 0c-1,14 -4,24 -9,33 -13,25 -50,42 -85,42 -49,0 -74,-28 -74,-66 0,-23 8,-45 19,-60l10 4c-7,14 -12,27 -12,40 0,35 29,52 62,52 31,0 69,-19 75,-42 -3,-25 -12,-36 -26,-59 4,-8 10,-15 17,-23l1 0 0 0zm565 -133c10,6 20,14 30,23 -6,8 -12,15 -21,21 -10,-8 -20,-15 -30,-22 7,-8 14,-15 21,-22l0 0 0 0 0 0zm5 96c-17,0 -30,11 -30,19 0,17 33,23 73,23 -5,-20 -23,-42 -43,-42zm-37 93c22,0 41,-1 55,-4 16,-4 30,-12 30,-18 0,-1 0,-3 -1,-5 -9,1 -19,1 -29,1 -29,0 -52,-7 -61,-23 -2,-5 -4,-10 -4,-16 0,-16 7,-31 19,-42 10,-9 21,-14 33,-14 21,0 37,16 48,42 6,14 11,31 11,51 0,14 -4,25 -12,34 -16,15 -45,21 -90,21l-20 0 0 0 -5 0c-11,0 -19,-2 -26,-7l-1 0c0,3 1,5 1,8 0,10 -3,23 -10,33 -20,30 -42,43 -60,43 -19,0 -42,-7 -63,-17l4 -7c7,3 16,5 29,5 34,0 78,-33 84,-64 -1,-3 -4,-6 -7,-10 -10,-12 -16,-22 -22,-32 5,-10 10,-18 14,-25l2 0c14,29 28,46 57,46l5 0 0 0 21 0 0 0 0 0 0 0zm-147 31c3,-14 3,-29 3,-43l0 -21c0,-39 -5,-96 -9,-134 7,-8 17,-17 25,-23l2 1c5,47 7,101 7,151 0,13 -1,26 -2,35 -1,12 -8,21 -22,35l-3 -1zm-151 -62c1,18 10,33 41,33 20,0 36,-5 55,-14 3,-1 5,-3 5,-5 0,-12 -9,-27 -24,-41 -14,-13 -34,-25 -52,-32 -6,-3 -8,-5 -8,-8 0,-5 7,-16 13,-24l2 0c21,11 43,27 60,44 15,16 25,33 25,51 0,13 -4,26 -11,38 -23,11 -46,20 -70,20 -29,0 -49,-14 -49,-45 0,-3 0,-9 1,-16l10 0 0 0 0 0 0 0zm-52 -52l18 29c7,11 13,22 13,41l0 24c0,19 -12,39 -32,60 -15,14 -29,19 -42,19 -19,0 -40,-6 -65,-16l3 -7c8,2 17,4 28,4 36,0 72,-26 89,-58 2,-4 3,-7 3,-9 0,-4 -2,-8 -4,-11 -9,-17 -19,-33 -30,-47 6,-9 12,-18 18,-27l1 0 0 0 0 0 0 0z"/>
  <g id="_1675223806272">
   <g id="Page-1">
    <g id="_038---Law-Book">
     <g id="Icons">
      <path id="Shape" class="fil3" d="M2522 640l0 858 -563 0c-59,0 -107,48 -107,107l0 -268 429 0c15,0 27,-12 27,-27l0 -54c0,-15 -12,-27 -27,-27l-188 0 0 -54c0,-30 -24,-54 -54,-54l-80 0c-15,0 -27,-12 -27,-27l0 -80c0,-15 -12,-27 -27,-27l0 -388c16,-9 35,-14 54,-14l509 0c30,0 54,24 54,54l0 0z"/>
      <path id="Shape_0" class="fil4" d="M2468 586l-80 0c30,0 54,24 54,54l0 858 80 0 0 -858c0,-30 -24,-54 -54,-54l0 0z"/>
      <path id="Shape_1" class="fil3" d="M1852 1337l0 268c0,-59 -48,-107 -107,-107l-563 0 0 -858c0,-30 24,-54 54,-54l509 0c19,0 37,5 54,14l0 388c-15,0 -27,12 -27,27l0 80c0,15 -12,27 -27,27l-80 0c-30,0 -54,24 -54,54l0 54 -188 0c-15,0 -27,12 -27,27l0 54c0,15 12,27 27,27l429 0z"/>
      <g>
       <path id="Shape_2" class="fil4" d="M1718 988c-15,0 -27,12 -27,27l0 80c0,15 -12,27 -27,27l80 0c15,0 27,-12 27,-27l0 -80c0,-15 12,-27 27,-27l0 -388c-16,-9 -35,-14 -54,-14l-80 0c19,0 37,5 54,14l0 388z"/>
       <path id="Shape_3" class="fil4" d="M1771 1337l0 165c47,12 80,55 80,103l0 -268 -80 0z"/>
       <path id="Shape_4" class="fil4" d="M2522 1497l0 80c0,15 -12,27 -27,27l-643 0c0,-59 48,-107 107,-107l563 0z"/>
       <path id="Shape_5" class="fil4" d="M1852 1605l-643 0c-15,0 -27,-12 -27,-27l0 -80 563 0c59,0 107,48 107,107z"/>
      </g>
      <path id="Shape_6" class="fil5" d="M2629 800l0 858c0,30 -24,54 -54,54l-563 0c-15,0 -27,12 -27,27l0 27c0,30 -24,54 -54,54l-161 0c-30,0 -54,-24 -54,-54l0 -27c0,-15 -12,-27 -27,-27l-563 0c-30,0 -54,-24 -54,-54l0 -858c0,-30 24,-54 54,-54l54 0 0 831c0,15 12,27 27,27l1287 0c15,0 27,-12 27,-27l0 -831 54 0c30,0 54,24 54,54z"/>
      <path id="Shape_7" class="fil6" d="M2576 747l-54 0 0 7c17,10 27,27 27,46l0 858c0,30 -24,54 -54,54l80 0c30,0 54,-24 54,-54l0 -858c0,-30 -24,-54 -54,-54l0 0z"/>
      <path class="fil7" d="M1423 1229l858 0c15,0 27,12 27,27l0 54c0,15 -12,27 -27,27l-858 0c-15,0 -27,-12 -27,-27l0 -54c0,-15 12,-27 27,-27z"/>
      <path id="Shape_8" class="fil8" d="M2281 1229l-80 0c15,0 27,12 27,27l0 54c0,15 -12,27 -27,27l80 0c15,0 27,-12 27,-27l0 -54c0,-15 -12,-27 -27,-27z"/>
      <path id="Shape_9" class="fil9" d="M2093 1176l0 54 -483 0 0 -54c0,-30 24,-54 54,-54l80 0c15,0 27,-12 27,-27l0 -80c0,-15 12,-27 27,-27l107 0c15,0 27,12 27,27l0 80c0,15 12,27 27,27l80 0c30,0 54,24 54,54z"/>
      <path id="Shape_10" class="fil10" d="M2039 1122l-80 0c30,0 54,24 54,54l0 54 80 0 0 -54c0,-30 -24,-54 -54,-54l0 0z"/>
      <path id="Shape_11" class="fil10" d="M1932 1095l0 -80c0,-15 -12,-27 -27,-27l-80 0c15,0 27,12 27,27l0 80c0,15 12,27 27,27l80 0c-15,0 -27,-12 -27,-27l0 0z"/>
      <path id="Shape_12" class="fil11" d="M1905 404l0 584 -107 0 0 -584c30,28 77,28 107,0l0 0z"/>
      <path id="Shape_13" class="fil7" d="M1932 345c0,44 -36,80 -80,80 -44,0 -80,-36 -80,-80 0,-44 36,-80 80,-80 44,0 80,36 80,80z"/>
      <circle id="Oval" class="fil9" cx="1208" cy="345" r="54"/>
      <path id="Shape_14" class="fil9" d="M1664 800c0,44 -18,85 -49,116 -31,30 -73,47 -117,45 -89,-5 -157,-79 -156,-168l0 -20c0,-15 12,-27 27,-27l268 0c15,0 27,12 27,27l0 27z"/>
      <path id="Shape_15" class="fil10" d="M1637 747l-80 0c15,0 27,12 27,27l0 27c0,73 -50,137 -120,155 11,3 23,5 35,5 44,1 86,-15 117,-45 31,-30 49,-72 49,-116l0 -27c0,-15 -12,-27 -27,-27z"/>
      <circle id="Oval_16" class="fil9" cx="2495" cy="345" r="54"/>
      <path id="Shape_17" class="fil9" d="M2039 800c0,44 18,85 49,116 31,30 73,47 117,45 89,-5 157,-79 156,-168l0 -20c0,-15 -12,-27 -27,-27l-268 0c-15,0 -27,12 -27,27l0 27z"/>
      <path id="Shape_18" class="fil9" d="M2039 800c0,44 18,85 49,116 31,30 73,47 117,45 89,-5 157,-79 156,-168l0 -20c0,-15 -12,-27 -27,-27l-268 0c-15,0 -27,12 -27,27l0 27z"/>
      <path id="Shape_19" class="fil10" d="M2334 747l-80 0c15,0 27,12 27,27l0 20c1,75 -49,141 -121,162 15,4 30,6 46,5 88,-5 157,-79 156,-168l0 -20c0,-15 -12,-27 -27,-27l0 0z"/>
     </g>
     <g id="Icons_copy">
      <path id="Shape_20" class="fil12" d="M2576 720l-27 0 0 -80c0,-44 -36,-80 -80,-80l-168 0 -63 -188 182 0c13,37 51,59 89,52 39,-7 67,-40 67,-79 0,-39 -28,-73 -67,-79 -39,-7 -76,16 -89,52l-465 0c-12,-47 -55,-80 -103,-80 -49,0 -91,33 -103,80l-465 0c-13,-37 -51,-59 -89,-52 -39,7 -67,40 -67,79 0,39 28,73 67,79 39,7 76,-16 89,-52l182 0 -63 188 -168 0c-44,0 -80,36 -80,80l0 80 -27 0c-44,0 -80,36 -80,80l0 858c0,44 36,80 80,80l563 0 0 27c0,44 36,80 80,80l161 0c44,0 80,-36 80,-80l0 -27 563 0c44,0 80,-36 80,-80l0 -858c0,-44 -36,-80 -80,-80zm-107 -107c15,0 27,12 27,27l0 831 -536 0c-29,0 -57,10 -80,28l0 -135 402 0c30,0 54,-24 54,-54l0 -54c0,-30 -24,-54 -54,-54l-161 0 0 -27c0,-44 -36,-80 -80,-80l-80 0 0 -80c0,-19 -10,-37 -27,-46l0 -351c9,-3 18,-5 27,-5l124 0 -37 111c-20,8 -33,28 -33,49l0 27c0,104 84,188 188,188l6 0c103,-6 183,-91 182,-194l0 -20c0,-22 -13,-41 -33,-49l-37 -111 150 0zm27 912l0 54 -612 0c11,-32 42,-54 76,-54l536 0zm-617 -563l-54 0 0 -513c18,5 36,5 54,0l0 513zm-80 134l0 -80 107 0 0 80c0,30 24,54 54,54l80 0c15,0 27,12 27,27l0 27 -429 0 0 -27c0,-15 12,-27 27,-27l80 0c30,0 54,-24 54,-54l0 0zm-188 161l670 0 0 54 -858 0 0 -54 188 0zm456 -483l268 0 0 20c1,74 -56,136 -130,141 -36,1 -71,-13 -97,-38 -26,-25 -41,-60 -41,-96l0 -27zm37 -54l36 -107 122 0 36 107 -194 0zm54 -161l43 -130 43 130 -86 0zm-56 0l-142 0c-9,0 -18,1 -27,3l0 -147c11,-12 19,-27 23,-43l208 0 -63 188zm395 -241c15,0 27,12 27,27 0,15 -12,27 -27,27 -15,0 -27,-12 -27,-27 0,-15 12,-27 27,-27zm-643 -27c30,0 54,24 54,54 0,30 -24,54 -54,54 -30,0 -54,-24 -54,-54 0,-30 24,-54 54,-54zm-643 80c-15,0 -27,-12 -27,-27 0,-15 12,-27 27,-27 15,0 27,12 27,27 0,7 -3,14 -8,19 -5,5 -12,8 -19,8zm540 0c4,16 12,31 23,43l0 147c-9,-2 -18,-3 -27,-3l-142 0 -63 -188 208 0zm-245 58l43 130 -86 0 43 -130zm-134 344l268 0 0 27c0,36 -15,71 -41,96 -26,25 -61,39 -97,38 -74,-5 -131,-67 -130,-141l0 -20zm37 -54l36 -107 122 0 36 107 -194 0zm-171 -107l150 0 -37 111c-20,8 -33,28 -33,49l0 20c-1,103 79,189 182,194l6 0c104,0 188,-84 188,-188l0 -27c0,-22 -13,-41 -33,-49l-37 -111 124 0c9,0 18,2 27,5l0 351c-17,10 -27,27 -27,46l0 80 -80 0c-44,0 -80,36 -80,80l0 27 -161 0c-30,0 -54,24 -54,54l0 54c0,30 24,54 54,54l402 0 0 135c-23,-18 -51,-27 -80,-28l-536 0 0 -831c0,-15 12,-27 27,-27l0 0zm-27 912l536 0c34,0 64,22 76,54l-612 0 0 -54zm1394 134c0,15 -12,27 -27,27l-563 0c-30,0 -54,24 -54,54l0 27c0,15 -12,27 -27,27l-161 0c-15,0 -27,-12 -27,-27l0 -27c0,-30 -24,-54 -54,-54l-563 0c-15,0 -27,-12 -27,-27l0 -858c0,-15 12,-27 27,-27l27 0 0 804c0,30 24,54 54,54l1287 0c30,0 54,-24 54,-54l0 -804 27 0c15,0 27,12 27,27l0 858z"/>
     </g>
    </g>
   </g>
  </g>
 </g>
</svg>
