<?xml version="1.0" encoding="UTF-8"?>
<!DOCTYPE svg PUBLIC "-//W3C//DTD SVG 1.0//EN" "http://www.w3.org/TR/2001/REC-SVG-20010904/DTD/svg10.dtd">
<!-- Creator: CorelDRAW 2017 -->
<svg xmlns="http://www.w3.org/2000/svg" xml:space="preserve" width="356px" height="200px" version="1.0" shape-rendering="geometricPrecision" text-rendering="geometricPrecision" image-rendering="optimizeQuality" fill-rule="evenodd" clip-rule="evenodd"
viewBox="0 0 35600 20025"
 xmlns:xlink="http://www.w3.org/1999/xlink">
 <g id="Layer_x0020_1">
  <metadata id="CorelCorpID_0Corel-Layer"/>
  <g id="_1533671944240">
   <path fill="#E6E7E8" d="M0 0l35600 0 0 20025 -35600 0 0 -20025z"/>
   <path fill="#373435" fill-opacity="0.078431" d="M20698 10473l1763 -2170 12 -9 14 -6 18 -4 23 -1 127 2 127 0 127 0 127 1 127 0 127 1 127 2 127 4 58 2 58 5 58 6 58 8 58 9 58 11 57 12 56 14 124 40 107 51 90 62 73 74 57 88 42 100 27 114 11 130 1 154 -10 153 -19 151 -30 149 -39 146 -51 143 -60 141 -71 138 -84 130 -1193 1469 11 -1 93 -2 93 -2 93 -3 93 -4 154 -9 154 -16 152 -23 150 -33 148 -41 144 -52 141 -63 137 -76 179 -115 166 -121 153 -129 141 -135 129 -143 -3635 4474 67 -12 197 -39 197 -42 197 -43 196 -46 195 -48 195 -50 195 -53 216 -61 214 -63 213 -67 212 -69 210 -73 210 -76 208 -79 206 -83 205 -86 203 -90 202 -94 200 -98 198 -102 196 -106 195 -111 192 -116 127 -78 124 -81 123 -82 121 -85 119 -86 118 -89 115 -91 114 -94 111 -96 108 -99 107 -102 103 -105 102 -107 98 -111 96 -114 -6381 7853 -21700 0 0 -2916 7498 -9228 -78 100 -75 101 -72 105 -70 107 -66 109 -70 124 -65 126 -59 126 -53 128 -48 128 -42 130 -36 131 -31 132 -24 134 -17 134 -12 136 -5 137 2 138 8 140 15 141 22 142 21 106 24 105 28 103 31 102 35 100 37 98 41 98 44 96 47 94 49 93 52 92 55 91 58 89 24 35 3666 -4512 -37 191 -38 191 -37 191 -37 190 -37 191 -37 191 -37 190 -37 191 -37 190 -37 191 -37 190 -37 191 -37 190 -37 191 -37 190 -37 190 -21 106 1756 -2161 10 -11 12 -9 16 -7 19 -3 23 -1 127 2 127 0 127 0 127 0 127 1 127 1 127 2 127 4 59 3 59 4 59 7 60 8 58 10 59 12 58 13 58 14 117 38 102 50 87 60 71 72 56 85 4 8 2394 -2946 -7 9 -5 10 -3 8 -13 65 -14 65 -13 65 -13 65 -13 65 -12 65 -13 65 -12 65 -31 155 -30 156 -30 155 -30 156 -31 155 -30 156 -30 156 -30 155 -31 156 -30 155 -30 156 -30 155 -30 156 -31 155 -30 156 -30 155 -30 156 -31 155 -30 156 -30 156 -30 155 -31 156 -30 155 -30 156 -30 155 -31 156 -24 127 1734 -2135 6 -1 5 -1 4 -2 4 -1 4 -1 3 -1 3 0 3 0 151 0 151 0 151 0 151 0 151 1 151 1 151 2 151 3 42 2 41 4 42 7 42 8 41 10 41 11 41 12 40 12 50 19 44 25 39 30 33 35 26 40 21 44 14 49 7 52 3 46 2 45 1 46 0 46 -2 45 -3 45 -5 45 -7 45 -29 151 -29 152 -28 151 -29 151 -29 152 -30 151 -29 151 -29 152 -29 151 2501 -3079 -37 191 -37 191 -37 190 -37 191 -37 191 -37 190 -37 191 -38 191 -37 190 -37 191 -37 190 -37 191 -37 190 -37 190 -37 191 -37 190 -20 104z"/>
   <g>
    <path fill="#FEFEFE" fill-rule="nonzero" d="M28304 8151c-430,-622 -990,-1108 -1613,-1526 -958,-643 -2008,-1088 -3105,-1427 -1525,-471 -3089,-714 -4680,-794 -1494,-74 -2981,-3 -4460,234 -1109,178 -2194,445 -3247,839 -965,361 -1881,814 -2701,1444 -539,415 -1014,891 -1361,1482 -387,660 -551,1365 -415,2127 102,571 358,1073 709,1529 431,560 964,1007 1552,1391 1007,660 2107,1111 3258,1446 1814,530 3671,751 5558,753 719,3 1436,-34 2151,-105 1071,-105 2128,-291 3165,-578 1152,-318 2258,-746 3280,-1374 677,-415 1292,-903 1778,-1537 477,-621 769,-1311 751,-2109 -14,-665 -246,-1255 -620,-1795z"/>
    <g>
     <path fill="#6C7EB7" fill-rule="nonzero" d="M28304 8151c-430,-622 -990,-1108 -1613,-1526 -958,-643 -2008,-1088 -3105,-1427 -1525,-471 -3089,-714 -4680,-794 -1494,-74 -2981,-3 -4460,234 -1109,178 -2194,445 -3247,839 -965,361 -1881,814 -2701,1444 -539,415 -1014,891 -1361,1482 -387,660 -551,1365 -415,2127 102,571 358,1073 709,1529 431,560 964,1007 1552,1391 1007,660 2107,1111 3258,1446 1814,530 3671,751 5558,753 719,3 1436,-34 2151,-105 1071,-105 2128,-291 3165,-578 1152,-318 2258,-746 3280,-1374 677,-415 1292,-903 1778,-1537 477,-621 769,-1311 751,-2109 -14,-665 -246,-1255 -620,-1795zm-14150 3324l0 0c-357,211 -757,290 -1165,306 -495,20 -991,15 -1486,20 -34,1 -69,0 -111,0 -86,444 -170,875 -254,1307 -17,88 -32,177 -54,264 -5,20 -35,47 -53,47 -420,3 -840,1 -1260,0 -6,0 -11,-4 -22,-8 394,-2027 789,-4054 1185,-6091 31,0 59,0 88,0 831,0 1663,-1 2494,1 285,0 567,30 841,109 731,211 1167,729 1187,1498 29,1107 -423,1975 -1390,2547zm5739 244l0 0c-5,25 -12,50 -19,78 -442,0 -881,0 -1335,0 22,-115 43,-227 65,-339 156,-807 315,-1613 467,-2421 22,-118 19,-242 11,-363 -10,-145 -94,-250 -234,-294 -107,-33 -219,-64 -330,-66 -402,-9 -805,-6 -1208,-7 -8,0 -16,4 -32,7 -58,302 -118,605 -177,908 -162,838 -325,1677 -487,2515 -9,42 -20,66 -71,65 -405,-2 -811,-1 -1216,-1 -11,0 -22,-4 -43,-9 35,-180 68,-359 103,-537 323,-1659 645,-3318 968,-4977 33,-174 66,-347 103,-520 5,-22 36,-55 55,-56 420,-3 839,-2 1273,-2 -105,541 -208,1073 -314,1620 37,0 67,0 97,0 487,5 973,3 1460,17 290,8 575,63 845,179 390,168 576,473 600,889 15,263 -37,519 -87,774 -166,847 -329,1693 -494,2540zm4650 -251l0 0c-360,218 -767,297 -1180,313 -495,20 -991,18 -1486,18 -88,0 -116,27 -131,110 -90,481 -186,961 -278,1441 -8,44 -14,73 -72,73 -414,-3 -828,-2 -1242,-3 -6,0 -11,-3 -27,-7 394,-2029 788,-4057 1184,-6093 35,0 63,0 92,0 828,0 1657,-1 2486,1 317,0 630,33 932,137 660,229 1054,685 1093,1387 63,1138 -385,2028 -1371,2623z"/>
     <path fill="#6C7EB7" fill-rule="nonzero" d="M13642 8364c-153,-40 -313,-66 -470,-71 -338,-12 -677,-5 -1016,-10 -68,-1 -87,24 -99,86 -105,554 -214,1107 -322,1661 -51,264 -101,527 -155,807 197,0 379,6 560,-1 266,-9 533,-10 796,-45 391,-52 725,-220 931,-578 217,-375 310,-785 290,-1215 -16,-346 -181,-546 -515,-634z"/>
     <path fill="#6C7EB7" fill-rule="nonzero" d="M24005 8360c-149,-39 -307,-62 -461,-67 -339,-12 -678,-5 -1016,-10 -66,-1 -81,27 -92,84 -118,613 -238,1226 -358,1839 -40,207 -79,413 -121,631 66,0 120,2 174,0 393,-13 788,-7 1178,-47 403,-42 741,-226 948,-596 204,-364 294,-760 279,-1175 -12,-365 -177,-566 -531,-659z"/>
    </g>
   </g>
   <path fill="#373435" fill-opacity="0.031373" d="M2082 17547c68,104 112,203 155,312 32,64 49,183 199,183 44,0 107,-14 163,-45 63,-33 111,-83 136,-159l60 -202 146 -72 10 10c-20,77 -25,149 -25,206 0,170 146,234 262,234 68,0 129,-34 129,-95 0,-81 -34,-217 -78,-339 68,-68 136,-136 214,-191l12 6c34,144 53,287 53,381 0,93 -41,196 -75,264 -70,132 -194,238 -344,238 -114,0 -241,-58 -328,-163l-5 0c-82,101 -209,193 -412,193l-63 0c-10,134 -39,229 -83,314 -121,237 -480,404 -818,404 -470,0 -706,-272 -706,-633 0,-223 73,-431 185,-578l92 38c-70,134 -117,262 -117,385 0,338 275,499 592,499 294,0 658,-187 724,-404 -25,-237 -114,-348 -250,-565 41,-72 94,-144 160,-221l12 0zm5421 -1274c99,62 196,136 291,221 -53,74 -119,142 -201,202 -95,-77 -190,-143 -287,-213 66,-74 131,-146 197,-210zm51 926c-160,0 -291,105 -291,183 0,168 320,219 703,217 -48,-196 -216,-400 -412,-400zm-359 895c208,0 390,-6 529,-41 155,-39 286,-118 286,-171 0,-15 0,-31 -5,-46 -87,8 -187,8 -274,8 -282,0 -498,-64 -583,-222 -21,-44 -36,-93 -36,-149 0,-152 66,-303 182,-406 97,-85 204,-138 313,-138 197,0 354,158 464,408 60,136 101,293 101,491 0,132 -36,243 -118,326 -153,148 -435,204 -867,204l-196 0 0 0 -51 0c-107,0 -184,-19 -245,-66l-10 0c3,25 5,50 5,72 0,97 -32,221 -97,320 -192,287 -400,410 -580,410 -182,0 -405,-70 -606,-161l36 -70c65,27 155,46 279,46 325,0 752,-314 805,-619 -12,-25 -34,-58 -65,-93 -95,-113 -155,-208 -211,-307 48,-95 92,-171 133,-239l17 -2c139,282 265,445 546,445l44 0 0 0 204 0zm-1408 299c24,-130 26,-276 26,-413l0 -202c0,-377 -48,-926 -87,-1282 68,-75 163,-161 238,-219l22 6c51,450 63,972 63,1452 0,126 -5,250 -17,340 -7,114 -73,201 -214,332l-31 -14zm-1449 -596c7,177 94,318 398,318 189,0 349,-50 526,-135 32,-14 49,-33 49,-49 0,-111 -85,-258 -228,-392 -139,-126 -323,-237 -495,-311 -59,-25 -78,-52 -78,-77 0,-51 68,-158 124,-235l19 -2c197,103 417,256 580,427 148,157 240,316 240,489 0,128 -39,250 -102,361 -216,109 -446,192 -674,192 -277,0 -466,-130 -466,-436 0,-33 0,-84 12,-150l95 0zm-501 -503l172 278c63,103 122,215 122,392l0 227c0,183 -117,379 -306,573 -148,132 -279,188 -400,188 -180,0 -386,-56 -624,-159l27 -70c75,21 162,37 269,37 342,-2 692,-252 852,-557 19,-35 26,-68 26,-90 0,-36 -19,-75 -34,-110 -87,-165 -184,-315 -291,-453 56,-89 112,-174 173,-258l14 2z"/>
  </g>
 </g>
</svg>
