<?xml version="1.0" encoding="utf-8"?>
<!-- Generator: Adobe Illustrator 23.0.1, SVG Export Plug-In . SVG Version: 6.00 Build 0)  -->
<svg version="1.1" id="Layer_1" xmlns="http://www.w3.org/2000/svg" xmlns:xlink="http://www.w3.org/1999/xlink" x="0px" y="0px"
	 viewBox="0 0 423.66 99.65" style="enable-background:new 0 0 423.66 99.65;" xml:space="preserve">
<style type="text/css">
	.st0{fill:#1E1E1E;}
	.st1{fill:#D1D3D4;}
	.st2{fill:#27AAE1;}
</style>
<title>logo-dark</title>
<path class="st0" d="M33.4,41.3c1.49,2.33,2.73,4.81,3.7,7.4c0.8,1.5,1.2,4.4,4.8,4.4c1.37-0.03,2.72-0.4,3.9-1.1
	c1.56-0.76,2.72-2.14,3.2-3.8l1.5-4.8l3.5-1.7l0.2,0.2c-0.42,1.6-0.62,3.25-0.6,4.9c0,4,3.5,5.6,6.3,5.6c1.6,0,3.1-0.8,3.1-2.3
	c-0.21-2.78-0.86-5.51-1.9-8.1c1.55-1.69,3.26-3.23,5.1-4.6l0.3,0.1c0.74,2.98,1.17,6.03,1.3,9.1c-0.14,2.2-0.76,4.35-1.8,6.3
	c-1.7,3.2-4.6,5.7-8.2,5.7c-3.04-0.12-5.88-1.54-7.8-3.9h-0.1c-2.39,3.01-6.06,4.71-9.9,4.6h-1.5c-0.08,2.62-0.77,5.19-2,7.5
	c-3,5.9-11.6,9.9-19.6,9.9C5.6,76.7,0,70.2,0,61.5c-0.06-4.95,1.49-9.79,4.4-13.8l2.2,0.9c-1.66,2.8-2.62,5.95-2.8,9.2
	c0,8.1,6.6,11.9,14.2,11.9c7,0,15.7-4.5,17.3-9.7c-0.6-5.7-2.7-8.3-6-13.5c1.12-1.87,2.39-3.64,3.8-5.3h0.3L33.4,41.3z"/>
<path class="st0" d="M75.4,35.3l4.1,6.7c1.89,2.77,2.9,6.05,2.9,9.4v5.3c0,4.4-2.8,9.1-7.3,13.7c-3.5,3.2-6.7,4.5-9.6,4.5
	c-4.3,0-9.2-1.3-14.9-3.8l0.6-1.7c2.08,0.59,4.24,0.9,6.4,0.9c8.2,0,16.5-6,20.4-13.3c0.41-0.66,0.61-1.42,0.6-2.2
	c-0.13-0.9-0.4-1.78-0.8-2.6c-2.02-3.8-4.36-7.41-7-10.8c1.3-2.1,2.7-4.1,4.1-6.2L75.4,35.3z"/>
<path class="st0" d="M87.3,47.3c0.2,4.2,2.3,7.6,9.5,7.6c4.39-0.08,8.7-1.17,12.6-3.2c0.8-0.3,1.2-0.8,1.2-1.2c0-2.7-2-6.2-5.5-9.4
	c-3.5-3.1-7.49-5.6-11.8-7.4c-1.4-0.6-1.9-1.2-1.9-1.8c0-1.2,1.6-3.8,3-5.6h0.5c5.13,2.67,9.82,6.11,13.9,10.2
	c3.5,3.7,5.7,7.5,5.7,11.7c-0.03,3.03-0.85,6-2.4,8.6c-5.2,2.6-10.7,4.6-16.1,4.6c-6.6,0-11.1-3.1-11.1-10.4
	c-0.02-1.21,0.08-2.41,0.3-3.6h2.1L87.3,47.3z"/>
<path class="st0" d="M122,61.5c0.5-3.27,0.71-6.59,0.6-9.9v-4.8c0-9-1.2-22.1-2.1-30.7c1.75-1.89,3.66-3.63,5.7-5.2l0.5,0.1
	c1.12,11.53,1.62,23.11,1.5,34.7c0.04,2.71-0.09,5.41-0.4,8.1c-0.2,2.7-1.7,4.8-5.1,7.9L122,61.5z"/>
<path class="st0" d="M163,10.9c-1.66,1.55-3.2,3.22-4.6,5c2.3,1.7,4.5,3.3,6.8,5.1c1.86-1.31,3.49-2.94,4.8-4.8
	C167.81,14.25,165.47,12.48,163,10.9z"/>
<path class="st0" d="M176.4,36.4c-2.6-6-6.4-9.8-11.1-9.8c-2.81,0.17-5.47,1.34-7.5,3.3c-2.7,2.51-4.26,6.01-4.3,9.7
	c0.02,1.22,0.33,2.42,0.9,3.5c2,3.8,7.2,5.3,13.9,5.3c2.1,0,4.5,0,6.6-0.2c0.08,0.36,0.11,0.73,0.1,1.1c0,1.3-3.1,3.2-6.8,4.1
	c-3.3,0.9-7.6,1-12.6,1l-5,0.1v-0.2h-1c-6.7,0-9.7-3.8-13-10.6l-0.4,0.1c-1,1.6-2,3.4-3.2,5.7c1.41,2.6,3.09,5.04,5,7.3
	c0.65,0.64,1.19,1.38,1.6,2.2c-1.3,7.3-11.5,14.8-19.3,14.8c-2.28,0.05-4.55-0.32-6.7-1.1l-0.9,1.7c4.8,2.1,10.2,3.8,14.5,3.8
	c4.3,0,9.3-2.9,13.9-9.8c1.44-2.28,2.24-4.91,2.3-7.6c0.01-0.57-0.02-1.14-0.1-1.7h0.2c1.5,1.2,3.3,1.6,5.9,1.6h0.06
	c0.38,0.07,0.76,0.11,1.14,0.1h4.7c10.3,0,17-1.4,20.7-4.9c1.93-2.13,2.94-4.93,2.8-7.8C178.82,44.08,178,40.09,176.4,36.4z
	 M157.2,37.4c0-1.9,3.2-4.4,7-4.4c4.7,0,8.7,4.9,9.8,9.6C164.9,42.6,157.2,41.4,157.2,37.4z"/>
<g>
	<g>
		<path class="st1" d="M269.65,13.56c0.26-0.94-0.52-1.89-1.75-2.07c-2.42-0.36-4.83-0.63-7.26-0.78c-1.23-0.08-2.5,0.64-2.82,1.56
			c-0.62,1.8-1.23,3.61-1.86,5.41c-0.31,0.93,0.48,1.72,1.77,1.82c2.54,0.19,5.07,0.49,7.58,0.88c1.29,0.2,2.55-0.36,2.8-1.31
			C268.62,17.23,269.14,15.4,269.65,13.56z"/>
		<path class="st1" d="M283.03,16.98c0.19-0.96-0.63-2.07-1.84-2.45c-2.39-0.74-4.77-1.38-7.18-1.91c-1.22-0.27-2.43,0.3-2.68,1.24
			c-0.5,1.84-0.99,3.68-1.49,5.52c-0.25,0.94,0.58,1.91,1.86,2.2c2.52,0.57,5.03,1.23,7.52,1.99c1.27,0.38,2.47-0.05,2.66-1
			C282.27,20.73,282.65,18.86,283.03,16.98z"/>
		<path class="st1" d="M296.24,22.44c0.12-0.97-0.74-2.23-1.93-2.8c-2.35-1.1-4.71-2.1-7.08-3.01c-1.2-0.47-2.34-0.03-2.53,0.93
			c-0.36,1.87-0.73,3.74-1.1,5.61c-0.19,0.96,0.69,2.09,1.96,2.57c2.49,0.93,4.97,1.95,7.42,3.06c1.25,0.57,2.38,0.27,2.51-0.7
			C295.74,26.22,295.99,24.33,296.24,22.44z"/>
		<path class="st1" d="M309.2,29.91c0.06-0.97-0.83-2.41-2-3.16c-2.3-1.48-4.62-2.84-6.95-4.11c-1.18-0.65-2.25-0.35-2.38,0.62
			c-0.23,1.89-0.47,3.78-0.71,5.68c-0.12,0.97,0.79,2.26,2.04,2.91c2.44,1.28,4.87,2.66,7.28,4.15c1.23,0.75,2.28,0.61,2.34-0.37
			C308.94,33.71,309.07,31.81,309.2,29.91z"/>
		<path class="st1" d="M266.79,23.79c0.26-0.94-0.58-1.9-1.87-2.1c-2.54-0.4-5.09-0.71-7.64-0.9c-1.29-0.1-2.61,0.6-2.93,1.53
			c-0.62,1.8-1.24,3.61-1.86,5.41c-0.31,0.93,0.52,1.74,1.87,1.86c2.65,0.23,5.31,0.57,7.96,1c1.36,0.22,2.66-0.33,2.92-1.27
			C265.77,27.47,266.29,25.63,266.79,23.79z"/>
		<path class="st1" d="M263.94,34.03c0.26-0.94-0.63-1.92-1.98-2.14c-2.67-0.43-5.34-0.78-8-1.01c-1.36-0.12-2.72,0.57-3.03,1.49
			c-0.62,1.8-1.24,3.61-1.86,5.41c-0.31,0.93,0.57,1.76,1.98,1.89c2.77,0.27,5.55,0.65,8.33,1.11c1.42,0.24,2.78-0.3,3.03-1.24
			C262.92,37.71,263.42,35.87,263.94,34.03z"/>
		<path class="st1" d="M278.78,37.82c0.19-0.96-0.74-2.09-2.08-2.5c-2.65-0.79-5.3-1.5-7.97-2.1c-1.36-0.31-2.66,0.23-2.92,1.18
			c-0.5,1.84-0.99,3.68-1.49,5.52c-0.25,0.94,0.69,1.94,2.1,2.27c2.77,0.64,5.54,1.36,8.31,2.18c1.41,0.41,2.71,0.01,2.9-0.95
			C278.01,41.55,278.39,39.68,278.78,37.82z"/>
		<path class="st1" d="M293.44,43.51c0.12-0.97-0.85-2.26-2.17-2.83c-2.61-1.14-5.24-2.18-7.88-3.14c-1.35-0.49-2.59-0.07-2.78,0.89
			c-0.36,1.87-0.73,3.74-1.1,5.61c-0.19,0.96,0.8,2.11,2.2,2.61c2.75,0.97,5.49,2.04,8.22,3.2c1.4,0.59,2.62,0.31,2.75-0.67
			C292.94,47.29,293.2,45.4,293.44,43.51z"/>
		<path class="st1" d="M261.09,44.27c0.26-0.94-0.68-1.93-2.1-2.17c-2.79-0.48-5.58-0.86-8.37-1.13c-1.42-0.14-2.83,0.53-3.15,1.46
			c-0.62,1.8-1.24,3.61-1.86,5.41c-0.31,0.93,0.62,1.77,2.09,1.93c2.89,0.31,5.79,0.73,8.7,1.23c1.49,0.26,2.89-0.27,3.16-1.21
			C260.07,47.94,260.57,46.11,261.09,44.27z"/>
		<path class="st1" d="M258.23,54.51c0.26-0.94-0.73-1.95-2.21-2.2c-2.92-0.52-5.84-0.93-8.75-1.24c-1.49-0.16-2.94,0.5-3.26,1.42
			c-0.62,1.8-1.23,3.61-1.86,5.41c-0.31,0.93,0.67,1.79,2.2,1.97c3.01,0.34,6.04,0.8,9.07,1.35c1.55,0.28,3.01-0.23,3.28-1.17
			C257.2,58.18,257.72,56.34,258.23,54.51z"/>
	</g>
	<g>
		<path class="st1" d="M347.34,23.25c-0.12-0.97-1.18-1.26-2.38-0.62c-2.33,1.27-4.65,2.64-6.95,4.11c-1.17,0.75-2.06,2.18-2,3.16
			c0.12,1.9,0.25,3.8,0.37,5.71c0.06,0.98,1.1,1.13,2.34,0.37c2.41-1.48,4.83-2.86,7.28-4.14c1.24-0.66,2.16-1.94,2.04-2.91
			C347.82,27.05,347.57,25.15,347.34,23.25z"/>
		<path class="st1" d="M360.52,17.56c-0.19-0.96-1.32-1.4-2.53-0.93c-2.37,0.91-4.73,1.91-7.08,3.01c-1.19,0.56-2.06,1.83-1.93,2.8
			c0.25,1.89,0.51,3.78,0.75,5.67c0.12,0.97,1.24,1.26,2.51,0.7c2.47-1.12,4.95-2.14,7.42-3.06c1.27-0.48,2.14-1.61,1.96-2.57
			C361.26,21.3,360.88,19.43,360.52,17.56z"/>
		<path class="st1" d="M373.89,13.87c-0.25-0.94-1.46-1.52-2.68-1.24c-2.4,0.54-4.79,1.17-7.18,1.91c-1.21,0.37-2.03,1.49-1.84,2.45
			c0.38,1.87,0.77,3.73,1.14,5.6c0.19,0.96,1.39,1.4,2.66,1c2.5-0.76,5.01-1.43,7.52-1.99c1.28-0.29,2.12-1.26,1.86-2.2
			C374.88,17.56,374.38,15.71,373.89,13.87z"/>
		<path class="st1" d="M348.66,33.8c-0.12-0.97-1.24-1.25-2.49-0.6c-2.46,1.28-4.9,2.66-7.33,4.15c-1.23,0.75-2.18,2.18-2.11,3.17
			c0.12,1.9,0.25,3.8,0.37,5.71c0.06,0.97,1.15,1.12,2.45,0.36c2.54-1.49,5.09-2.88,7.67-4.18c1.31-0.66,2.29-1.96,2.16-2.93
			C349.12,37.59,348.89,35.69,348.66,33.8z"/>
		<path class="st1" d="M390.86,22.31c-0.31-0.93-1.63-1.63-2.93-1.53c-2.55,0.19-5.1,0.5-7.64,0.9c-1.29,0.2-2.13,1.16-1.87,2.1
			c0.52,1.84,1.02,3.67,1.54,5.51c0.26,0.94,1.57,1.5,2.92,1.27c2.65-0.43,5.3-0.77,7.96-1c1.36-0.12,2.19-0.93,1.87-1.86
			C392.09,25.92,391.47,24.12,390.86,22.31z"/>
		<path class="st1" d="M349.96,44.36c-0.12-0.97-1.29-1.24-2.61-0.59c-2.59,1.29-5.16,2.69-7.72,4.19c-1.29,0.76-2.3,2.19-2.23,3.18
			c0.12,1.9,0.25,3.8,0.37,5.71c0.06,0.97,1.2,1.12,2.56,0.35c2.66-1.5,5.34-2.9,8.04-4.22c1.38-0.67,2.41-1.97,2.29-2.94
			C350.43,48.14,350.19,46.24,349.96,44.36z"/>
		<path class="st1" d="M394.31,32.37c-0.31-0.93-1.68-1.61-3.03-1.49c-2.67,0.23-5.34,0.58-8,1.01c-1.36,0.22-2.25,1.19-1.98,2.14
			c0.52,1.84,1.02,3.67,1.54,5.51c0.26,0.94,1.62,1.49,3.03,1.24c2.78-0.48,5.55-0.85,8.33-1.11c1.42-0.14,2.31-0.97,1.98-1.89
			C395.55,35.98,394.92,34.18,394.31,32.37z"/>
		<path class="st1" d="M351.27,54.91c-0.12-0.97-1.35-1.24-2.73-0.58c-2.72,1.31-5.42,2.72-8.09,4.22c-1.37,0.76-2.41,2.2-2.35,3.18
			c0.12,1.9,0.25,3.8,0.37,5.71c0.06,0.98,1.25,1.12,2.68,0.34c2.78-1.51,5.59-2.92,8.42-4.25c1.45-0.68,2.53-1.98,2.4-2.95
			C351.73,58.69,351.5,56.8,351.27,54.91z"/>
		<path class="st1" d="M397.76,42.42c-0.31-0.93-1.73-1.59-3.15-1.46c-2.79,0.27-5.58,0.66-8.37,1.13c-1.43,0.24-2.37,1.23-2.1,2.17
			c0.52,1.84,1.02,3.67,1.54,5.51c0.26,0.94,1.68,1.47,3.16,1.21c2.9-0.51,5.8-0.92,8.7-1.22c1.48-0.16,2.42-1.01,2.09-1.93
			C399,46.03,398.38,44.23,397.76,42.42z"/>
		<path class="st1" d="M352.57,65.46c-0.12-0.97-1.41-1.23-2.85-0.56c-2.84,1.32-5.67,2.74-8.47,4.26
			c-1.43,0.77-2.52,2.21-2.46,3.19c0.12,1.9,0.25,3.8,0.37,5.71c0.06,0.98,1.3,1.11,2.79,0.34c2.91-1.52,5.85-2.94,8.81-4.29
			c1.52-0.69,2.64-2,2.52-2.97C353.05,69.24,352.81,67.35,352.57,65.46z"/>
		<path class="st1" d="M368.68,59.29c-0.19-0.96-1.55-1.36-3.02-0.84c-2.9,1-5.79,2.09-8.67,3.27c-1.47,0.6-2.55,1.9-2.42,2.87
			c0.25,1.89,0.51,3.78,0.75,5.67c0.12,0.97,1.47,1.23,2.99,0.63c2.99-1.19,6-2.31,9.02-3.33c1.54-0.53,2.64-1.7,2.45-2.66
			C369.41,63.03,369.04,61.16,368.68,59.29z"/>
		<path class="st1" d="M384.95,54.93c-0.25-0.94-1.67-1.46-3.16-1.12c-2.92,0.67-5.84,1.44-8.75,2.29
			c-1.49,0.43-2.53,1.59-2.34,2.55c0.38,1.87,0.76,3.73,1.14,5.6c0.19,0.96,1.6,1.36,3.16,0.9c3.02-0.88,6.07-1.67,9.09-2.37
			c1.55-0.35,2.6-1.39,2.34-2.34C385.94,58.61,385.45,56.77,384.95,54.93z"/>
	</g>
	<g>
		<path class="st2" d="M257.75,7.59c-0.32,0.92-1.59,1.66-2.82,1.67c-2.42,0.04-4.84,0.18-7.27,0.46c-1.23,0.13-1.94-0.46-1.56-1.36
			c0.73-1.76,1.46-3.52,2.18-5.29c0.37-0.9,1.65-1.8,2.83-1.95c2.34-0.3,4.66-0.5,6.98-0.57c1.18-0.04,1.87,0.72,1.56,1.64
			C259.03,3.99,258.39,5.79,257.75,7.59z"/>
		<path class="st2" d="M272.51,3.31c0.26-0.94-0.47-1.87-1.63-2.04c-2.29-0.32-4.59-0.56-6.9-0.67c-1.17-0.06-2.39,0.68-2.71,1.6
			c-0.62,1.8-1.24,3.61-1.86,5.41c-0.31,0.93,0.42,1.71,1.65,1.78c2.41,0.15,4.82,0.4,7.21,0.77c1.22,0.18,2.43-0.4,2.69-1.35
			C271.48,6.99,271.99,5.15,272.51,3.31z"/>
		<path class="st2" d="M285.17,6.57c0.19-0.96-0.58-2.05-1.72-2.42c-2.26-0.71-4.51-1.31-6.79-1.82c-1.15-0.26-2.31,0.33-2.56,1.27
			c-0.5,1.84-0.99,3.68-1.49,5.52c-0.25,0.94,0.53,1.9,1.74,2.17c2.39,0.54,4.76,1.16,7.13,1.9c1.2,0.37,2.35-0.07,2.54-1.03
			C284.4,10.31,284.78,8.44,285.17,6.57z"/>
		<path class="st2" d="M297.64,11.9c0.12-0.97-0.69-2.23-1.81-2.78c-2.21-1.08-4.45-2.06-6.68-2.94c-1.14-0.44-2.21,0-2.41,0.95
			c-0.36,1.87-0.73,3.74-1.1,5.61c-0.19,0.96,0.64,2.08,1.83,2.54c2.36,0.9,4.69,1.9,7.03,3c1.19,0.56,2.26,0.25,2.39-0.72
			C297.13,15.68,297.38,13.79,297.64,11.9z"/>
		<path class="st2" d="M309.88,19.3c0.06-0.97-0.78-2.4-1.89-3.15c-2.17-1.47-4.37-2.82-6.56-4.08c-1.12-0.64-2.13-0.34-2.26,0.63
			c-0.23,1.89-0.47,3.78-0.71,5.67c-0.12,0.97,0.74,2.26,1.92,2.9c2.32,1.26,4.61,2.63,6.9,4.11c1.16,0.75,2.15,0.6,2.21-0.38
			C309.64,23.1,309.76,21.2,309.88,19.3z"/>
		<path class="st2" d="M321.77,28.87c0-0.98-0.85-2.58-1.92-3.52c-2.09-1.86-4.23-3.61-6.36-5.25c-1.09-0.84-2.03-0.7-2.08,0.28
			c-0.11,1.9-0.21,3.81-0.32,5.71c-0.06,0.97,0.83,2.42,1.98,3.26c2.25,1.65,4.47,3.4,6.67,5.26c1.12,0.95,2.02,0.96,2.02-0.02
			C321.76,32.68,321.76,30.77,321.77,28.87z"/>
		<path class="st2" d="M256.12,12.21c0.32-0.92-0.41-1.69-1.66-1.68c-2.44,0.03-4.87,0.17-7.31,0.43c-1.24,0.13-2.56,1.01-2.93,1.91
			c-0.73,1.76-1.46,3.52-2.18,5.29c-0.37,0.9,0.36,1.51,1.66,1.4c2.53-0.22,5.07-0.33,7.6-0.32c1.29,0,2.61-0.71,2.93-1.64
			C254.86,15.81,255.49,14.01,256.12,12.21z"/>
		<path class="st2" d="M321.73,39.5c0-0.98-0.9-2.58-2.02-3.52c-2.2-1.86-4.45-3.62-6.71-5.27c-1.15-0.84-2.14-0.7-2.19,0.28
			c-0.11,1.9-0.21,3.81-0.32,5.71c-0.06,0.97,0.89,2.42,2.09,3.27c2.37,1.65,4.71,3.41,7.02,5.27c1.17,0.95,2.12,0.96,2.12-0.02
			C321.71,43.31,321.72,41.41,321.73,39.5z"/>
		<path class="st2" d="M252.59,22.24c0.32-0.92-0.47-1.71-1.77-1.71c-2.55-0.01-5.1,0.09-7.65,0.31c-1.29,0.11-2.65,0.97-3.02,1.87
			c-0.73,1.76-1.46,3.52-2.18,5.29c-0.37,0.9,0.4,1.53,1.75,1.44c2.64-0.18,5.28-0.25,7.93-0.2c1.36,0.02,2.71-0.68,3.03-1.6
			C251.32,25.83,251.96,24.03,252.59,22.24z"/>
		<path class="st2" d="M280.9,27.4c0.19-0.96-0.69-2.08-1.97-2.47c-2.52-0.77-5.05-1.44-7.57-2c-1.28-0.29-2.54,0.27-2.8,1.21
			c-0.5,1.84-0.99,3.68-1.49,5.52c-0.25,0.94,0.63,1.93,1.98,2.23c2.64,0.6,5.29,1.29,7.92,2.08c1.35,0.4,2.59-0.02,2.78-0.98
			C280.14,31.13,280.53,29.27,280.9,27.4z"/>
		<path class="st2" d="M294.85,32.97c0.12-0.97-0.79-2.25-2.05-2.81c-2.48-1.12-4.98-2.14-7.47-3.07c-1.27-0.48-2.46-0.05-2.65,0.91
			c-0.36,1.87-0.73,3.74-1.1,5.61c-0.19,0.96,0.74,2.1,2.08,2.59c2.62,0.95,5.23,1.99,7.83,3.14c1.32,0.58,2.5,0.29,2.63-0.68
			C294.34,36.76,294.59,34.86,294.85,32.97z"/>
		<path class="st2" d="M308.51,40.52c0.06-0.97-0.88-2.41-2.11-3.17c-2.43-1.48-4.87-2.86-7.33-4.15c-1.25-0.66-2.37-0.36-2.49,0.6
			c-0.23,1.89-0.47,3.78-0.71,5.67c-0.12,0.97,0.85,2.27,2.16,2.93c2.57,1.29,5.13,2.69,7.67,4.18c1.29,0.76,2.39,0.61,2.45-0.36
			C308.26,44.32,308.38,42.42,308.51,40.52z"/>
		<path class="st2" d="M321.67,50.12c0-0.98-0.94-2.58-2.12-3.52c-2.33-1.86-4.67-3.62-7.06-5.28c-1.21-0.84-2.26-0.71-2.31,0.27
			c-0.11,1.9-0.22,3.81-0.32,5.71c-0.06,0.98,0.94,2.43,2.2,3.27c2.49,1.66,4.95,3.42,7.37,5.29c1.23,0.95,2.22,0.96,2.22-0.02
			C321.66,53.94,321.67,52.04,321.67,50.12z"/>
		<path class="st2" d="M249.05,32.27c0.32-0.92-0.52-1.73-1.87-1.75c-2.66-0.05-5.32,0.01-7.98,0.18c-1.36,0.09-2.75,0.93-3.12,1.84
			c-0.73,1.76-1.46,3.52-2.18,5.29c-0.37,0.9,0.44,1.55,1.85,1.48c2.74-0.14,5.5-0.16,8.26-0.07c1.41,0.05,2.82-0.64,3.15-1.56
			C247.79,35.86,248.42,34.07,249.05,32.27z"/>
		<path class="st2" d="M307.81,51.13c0.06-0.97-0.93-2.41-2.23-3.18c-2.55-1.49-5.12-2.88-7.72-4.19c-1.31-0.67-2.49-0.38-2.61,0.59
			c-0.23,1.89-0.47,3.78-0.71,5.67c-0.12,0.97,0.9,2.28,2.29,2.94c2.7,1.31,5.39,2.71,8.04,4.22c1.36,0.76,2.5,0.62,2.56-0.35
			C307.57,54.93,307.69,53.03,307.81,51.13z"/>
		<path class="st2" d="M321.63,60.75c0-0.98-0.99-2.58-2.22-3.53c-2.43-1.86-4.9-3.63-7.41-5.29c-1.27-0.85-2.37-0.71-2.42,0.26
			c-0.11,1.9-0.21,3.81-0.32,5.71c-0.06,0.98,0.98,2.43,2.32,3.28c2.61,1.66,5.19,3.43,7.72,5.3c1.29,0.95,2.33,0.96,2.33-0.02
			C321.61,64.57,321.62,62.65,321.63,60.75z"/>
		<path class="st2" d="M245.51,42.29c0.32-0.92-0.57-1.74-1.97-1.79c-2.78-0.09-5.55-0.08-8.3,0.06c-1.41,0.07-2.84,0.9-3.22,1.8
			c-0.73,1.76-1.46,3.52-2.18,5.29c-0.37,0.9,0.5,1.56,1.94,1.51c2.84-0.1,5.71-0.08,8.6,0.05c1.47,0.07,2.92-0.6,3.25-1.52
			C244.25,45.89,244.89,44.09,245.51,42.29z"/>
		<path class="st2" d="M276.64,48.23c0.19-0.96-0.8-2.1-2.2-2.52c-2.78-0.82-5.57-1.56-8.36-2.19c-1.42-0.32-2.78,0.2-3.03,1.14
			c-0.5,1.84-0.99,3.68-1.49,5.52c-0.25,0.94,0.74,1.96,2.21,2.3c2.9,0.67,5.8,1.43,8.7,2.28c1.48,0.43,2.83,0.03,3.02-0.93
			C275.87,51.97,276.26,50.09,276.64,48.23z"/>
		<path class="st2" d="M292.04,54.05c0.12-0.97-0.9-2.27-2.3-2.85c-2.75-1.15-5.5-2.22-8.27-3.21c-1.41-0.5-2.71-0.1-2.9,0.86
			c-0.36,1.87-0.73,3.74-1.1,5.61c-0.19,0.96,0.85,2.12,2.33,2.63c2.88,1,5.75,2.08,8.62,3.26c1.46,0.6,2.74,0.32,2.87-0.65
			C291.55,57.83,291.79,55.94,292.04,54.05z"/>
		<path class="st2" d="M307.12,61.72c0.06-0.97-0.98-2.42-2.35-3.18c-2.67-1.5-5.37-2.9-8.09-4.22c-1.39-0.67-2.61-0.39-2.73,0.58
			c-0.23,1.89-0.47,3.78-0.71,5.68c-0.12,0.97,0.95,2.28,2.4,2.95c2.83,1.32,5.64,2.74,8.42,4.25c1.42,0.77,2.61,0.63,2.68-0.34
			C306.88,65.54,307,63.64,307.12,61.72z"/>
		<path class="st2" d="M321.59,71.38c0-0.98-1.03-2.58-2.33-3.53c-2.55-1.87-5.14-3.63-7.76-5.3c-1.33-0.85-2.48-0.72-2.53,0.26
			c-0.11,1.9-0.21,3.81-0.32,5.71c-0.06,0.97,1.03,2.43,2.43,3.28c2.73,1.67,5.42,3.43,8.06,5.3c1.36,0.95,2.43,0.96,2.43-0.02
			C321.57,75.19,321.58,73.29,321.59,71.38z"/>
		<path class="st2" d="M241.98,52.31c0.32-0.92-0.61-1.76-2.08-1.83c-2.89-0.13-5.77-0.16-8.64-0.07c-1.46,0.05-2.93,0.86-3.32,1.76
			c-0.73,1.76-1.46,3.52-2.18,5.29c-0.37,0.91,0.54,1.58,2.04,1.55c2.95-0.06,5.93,0.01,8.92,0.18c1.53,0.09,3.03-0.56,3.36-1.49
			C240.72,55.91,241.35,54.11,241.98,52.31z"/>
		<path class="st2" d="M274.51,58.64c0.19-0.96-0.85-2.11-2.34-2.55c-2.91-0.85-5.84-1.62-8.76-2.29c-1.49-0.34-2.9,0.17-3.16,1.12
			c-0.5,1.84-0.99,3.68-1.49,5.52c-0.25,0.94,0.79,1.97,2.34,2.34c3.03,0.7,6.07,1.49,9.09,2.37c1.55,0.44,2.95,0.06,3.16-0.9
			C273.75,62.38,274.12,60.51,274.51,58.64z"/>
		<path class="st2" d="M290.65,64.59c0.12-0.97-0.95-2.27-2.42-2.87c-2.87-1.17-5.76-2.27-8.67-3.27c-1.48-0.52-2.83-0.12-3.02,0.84
			c-0.36,1.87-0.73,3.74-1.1,5.61c-0.19,0.96,0.91,2.13,2.45,2.66c3.01,1.02,6.03,2.13,9.02,3.33c1.53,0.61,2.86,0.34,2.99-0.63
			C290.14,68.37,290.4,66.48,290.65,64.59z"/>
		<path class="st2" d="M306.43,72.33c0.06-0.97-1.03-2.42-2.46-3.19c-2.8-1.51-5.63-2.92-8.47-4.26c-1.45-0.68-2.73-0.41-2.85,0.56
			c-0.23,1.89-0.48,3.78-0.71,5.67c-0.12,0.97,1.01,2.29,2.52,2.97c2.96,1.35,5.91,2.77,8.81,4.29c1.49,0.77,2.73,0.64,2.79-0.34
			C306.19,76.15,306.31,74.23,306.43,72.33z"/>
		<path class="st2" d="M321.55,82.01c0-0.98-1.08-2.58-2.43-3.53c-2.66-1.87-5.36-3.64-8.11-5.3c-1.4-0.85-2.59-0.72-2.64,0.25
			c-0.11,1.9-0.21,3.81-0.32,5.71c-0.06,0.98,1.08,2.44,2.54,3.29c2.85,1.68,5.65,3.44,8.41,5.31c1.41,0.95,2.53,0.96,2.53-0.02
			C321.53,85.82,321.54,83.92,321.55,82.01z"/>
		<path class="st2" d="M238.45,62.34c0.32-0.92-0.66-1.78-2.19-1.87c-3.01-0.17-6-0.24-8.97-0.19c-1.52,0.03-3.03,0.82-3.41,1.72
			c-0.73,1.76-1.46,3.52-2.18,5.29c-0.37,0.91,0.58,1.6,2.13,1.59c3.05-0.01,6.15,0.09,9.25,0.3c1.59,0.11,3.14-0.52,3.46-1.45
			C237.18,65.93,237.82,64.13,238.45,62.34z"/>
		<path class="st2" d="M255.37,64.75c0.26-0.94-0.79-1.96-2.34-2.23c-3.04-0.55-6.09-1-9.11-1.36c-1.55-0.18-3.04,0.46-3.37,1.38
			c-0.62,1.8-1.24,3.61-1.86,5.41c-0.31,0.93,0.72,1.81,2.32,2c3.14,0.38,6.28,0.88,9.45,1.46c1.61,0.29,3.12-0.2,3.39-1.14
			C254.35,68.43,254.87,66.59,255.37,64.75z"/>
		<path class="st2" d="M272.37,69.06c0.19-0.96-0.91-2.12-2.46-2.58c-3.04-0.88-6.1-1.68-9.14-2.38c-1.56-0.35-3.01,0.14-3.28,1.08
			c-0.5,1.84-0.99,3.68-1.49,5.52c-0.25,0.94,0.84,1.98,2.46,2.37c3.17,0.73,6.33,1.56,9.49,2.46c1.61,0.47,3.07,0.08,3.27-0.88
			C271.62,72.79,272,70.93,272.37,69.06z"/>
		<path class="st2" d="M289.25,75.12c0.12-0.97-1.01-2.28-2.54-2.88c-3.01-1.19-6.04-2.31-9.07-3.34c-1.55-0.53-2.95-0.14-3.15,0.82
			c-0.36,1.87-0.73,3.74-1.1,5.61c-0.19,0.96,0.96,2.14,2.57,2.68c3.16,1.05,6.29,2.17,9.42,3.39c1.6,0.62,2.98,0.35,3.11-0.62
			C288.75,78.9,289,77,289.25,75.12z"/>
		<path class="st2" d="M305.75,82.94c0.06-0.97-1.09-2.42-2.58-3.2c-2.92-1.52-5.89-2.95-8.86-4.29c-1.52-0.69-2.85-0.42-2.97,0.55
			c-0.23,1.89-0.48,3.78-0.71,5.68c-0.12,0.97,1.06,2.3,2.64,2.98c3.09,1.36,6.16,2.79,9.19,4.32c1.55,0.78,2.84,0.65,2.9-0.33
			C305.49,86.74,305.62,84.84,305.75,82.94z"/>
		<path class="st2" d="M321.5,92.64c0-0.98-1.12-2.58-2.53-3.53c-2.77-1.87-5.59-3.64-8.45-5.31c-1.46-0.86-2.7-0.73-2.76,0.25
			c-0.11,1.9-0.21,3.81-0.32,5.71c-0.06,0.98,1.14,2.44,2.65,3.3c2.97,1.68,5.9,3.45,8.76,5.32c1.47,0.95,2.63,0.96,2.63-0.01
			C321.49,96.45,321.49,94.55,321.5,92.64z"/>
		<path class="st2" d="M334.15,26.09c0.06,0.98-0.83,2.42-1.98,3.26c-2.25,1.65-4.47,3.4-6.67,5.26c-1.12,0.95-2.02,0.96-2.02-0.02
			c-0.01-1.91-0.02-3.81-0.02-5.72c0-0.98,0.85-2.58,1.92-3.52c2.09-1.86,4.23-3.61,6.36-5.25c1.09-0.84,2.03-0.7,2.08,0.28
			C333.93,22.28,334.04,24.18,334.15,26.09z"/>
		<path class="st2" d="M346.04,12.71c-0.12-0.97-1.13-1.27-2.26-0.63c-2.19,1.25-4.39,2.61-6.56,4.08
			c-1.11,0.74-1.95,2.17-1.89,3.15c0.12,1.9,0.25,3.8,0.37,5.71c0.06,0.97,1.05,1.13,2.21,0.38c2.29-1.47,4.58-2.84,6.9-4.11
			c1.18-0.65,2.04-1.93,1.92-2.9C346.51,16.5,346.27,14.6,346.04,12.71z"/>
		<path class="st2" d="M358.49,7.12c-0.19-0.96-1.27-1.41-2.41-0.95c-2.23,0.88-4.47,1.86-6.68,2.94c-1.13,0.55-1.94,1.81-1.81,2.78
			c0.25,1.89,0.51,3.78,0.75,5.67c0.12,0.97,1.19,1.27,2.39,0.72c2.34-1.1,4.67-2.1,7.03-3c1.2-0.47,2.02-1.58,1.83-2.54
			C359.21,10.87,358.85,9,358.49,7.12z"/>
		<path class="st2" d="M371.12,3.62c-0.25-0.94-1.41-1.54-2.56-1.27c-2.28,0.51-4.53,1.11-6.79,1.82c-1.14,0.36-1.91,1.46-1.72,2.42
			c0.38,1.87,0.76,3.73,1.14,5.6c0.19,0.96,1.33,1.41,2.54,1.03c2.37-0.73,4.74-1.37,7.13-1.9c1.21-0.27,2-1.23,1.74-2.17
			C372.11,7.3,371.61,5.46,371.12,3.62z"/>
		<path class="st2" d="M383.95,2.21c-0.31-0.93-1.54-1.66-2.71-1.6c-2.31,0.11-4.6,0.33-6.9,0.67c-1.16,0.16-1.89,1.1-1.63,2.04
			c0.52,1.84,1.02,3.67,1.54,5.51c0.26,0.94,1.47,1.53,2.69,1.35c2.4-0.36,4.8-0.62,7.21-0.77c1.23-0.08,1.97-0.86,1.65-1.78
			C385.18,5.82,384.57,4.01,383.95,2.21z"/>
		<path class="st2" d="M396.94,3.07c-0.37-0.9-1.65-1.8-2.83-1.95c-2.34-0.3-4.66-0.5-6.98-0.57c-1.18-0.04-1.87,0.72-1.56,1.64
			c0.64,1.8,1.26,3.6,1.9,5.39c0.32,0.93,1.59,1.66,2.82,1.67c2.42,0.04,4.84,0.18,7.27,0.46c1.23,0.13,1.94-0.46,1.56-1.36
			C398.39,6.6,397.66,4.84,396.94,3.07z"/>
		<path class="st2" d="M334.43,30.99c-0.06-0.97-1.04-1.12-2.19-0.28c-2.27,1.65-4.5,3.4-6.71,5.27c-1.12,0.95-2.02,2.55-2.02,3.52
			c0.01,1.91,0.02,3.81,0.02,5.72c0,0.98,0.95,0.97,2.12,0.02c2.31-1.86,4.65-3.62,7.02-5.27c1.21-0.84,2.15-2.29,2.09-3.27
			C334.65,34.79,334.54,32.89,334.43,30.99z"/>
		<path class="st2" d="M387.4,12.26c-0.31-0.93-1.58-1.64-2.81-1.56c-2.43,0.15-4.85,0.41-7.26,0.78c-1.22,0.18-2.01,1.13-1.75,2.07
			c0.52,1.84,1.02,3.67,1.54,5.51c0.26,0.94,1.52,1.52,2.8,1.31c2.53-0.39,5.06-0.7,7.58-0.88c1.29-0.1,2.08-0.9,1.77-1.82
			C388.64,15.87,388.02,14.06,387.4,12.26z"/>
		<path class="st2" d="M401,12.89c-0.37-0.9-1.69-1.78-2.93-1.91c-2.44-0.26-4.88-0.4-7.31-0.43c-1.24-0.02-1.98,0.75-1.66,1.68
			c0.64,1.8,1.26,3.6,1.9,5.39c0.32,0.93,1.64,1.64,2.93,1.64c2.54-0.01,5.08,0.1,7.6,0.32c1.29,0.11,2.03-0.49,1.66-1.4
			C402.46,16.42,401.73,14.65,401,12.89z"/>
		<path class="st2" d="M335.03,41.6c-0.06-0.97-1.09-1.11-2.31-0.27c-2.39,1.65-4.74,3.41-7.06,5.28c-1.18,0.95-2.12,2.55-2.12,3.52
			c0.01,1.91,0.02,3.81,0.02,5.72c0,0.98,0.99,0.97,2.22,0.02c2.42-1.86,4.87-3.63,7.36-5.29c1.27-0.85,2.27-2.3,2.2-3.27
			C335.26,45.4,335.15,43.5,335.03,41.6z"/>
		<path class="st2" d="M362.56,27.99c-0.19-0.96-1.38-1.39-2.65-0.91c-2.5,0.93-5,1.95-7.47,3.07c-1.26,0.57-2.18,1.85-2.05,2.81
			c0.25,1.89,0.51,3.78,0.75,5.67c0.12,0.97,1.3,1.26,2.63,0.68c2.6-1.14,5.21-2.18,7.82-3.12c1.33-0.49,2.27-1.63,2.08-2.59
			C363.3,31.73,362.93,29.86,362.56,27.99z"/>
		<path class="st2" d="M376.65,24.13c-0.25-0.94-1.52-1.51-2.8-1.21c-2.53,0.57-5.06,1.24-7.57,2c-1.28,0.38-2.16,1.52-1.97,2.47
			c0.38,1.87,0.77,3.73,1.14,5.6c0.19,0.96,1.44,1.39,2.78,0.98c2.63-0.79,5.27-1.49,7.92-2.08c1.35-0.31,2.23-1.29,1.98-2.23
			C377.65,27.82,377.14,25.97,376.65,24.13z"/>
		<path class="st2" d="M405.07,22.72c-0.37-0.9-1.73-1.76-3.02-1.87c-2.55-0.22-5.1-0.32-7.65-0.31c-1.29,0-2.09,0.79-1.77,1.71
			c0.64,1.8,1.26,3.6,1.9,5.39c0.32,0.93,1.69,1.62,3.03,1.6c2.65-0.05,5.3,0.02,7.93,0.2c1.35,0.09,2.13-0.53,1.75-1.44
			C406.52,26.24,405.79,24.48,405.07,22.72z"/>
		<path class="st2" d="M335.64,52.21c-0.06-0.97-1.14-1.11-2.42-0.26c-2.51,1.66-4.98,3.42-7.41,5.29
			c-1.23,0.95-2.22,2.55-2.22,3.53c0.01,1.91,0.02,3.81,0.02,5.72c0,0.98,1.04,0.97,2.33,0.02c2.53-1.87,5.11-3.63,7.72-5.3
			c1.33-0.85,2.38-2.3,2.32-3.28C335.85,56.02,335.75,54.12,335.64,52.21z"/>
		<path class="st2" d="M364.6,38.42c-0.19-0.96-1.44-1.37-2.78-0.89c-2.63,0.95-5.26,1.99-7.88,3.14c-1.33,0.58-2.31,1.86-2.17,2.83
			c0.25,1.89,0.51,3.78,0.75,5.67c0.12,0.97,1.36,1.25,2.75,0.67c2.73-1.15,5.47-2.21,8.22-3.2c1.41-0.5,2.39-1.65,2.2-2.61
			C365.33,42.17,364.97,40.29,364.6,38.42z"/>
		<path class="st2" d="M379.42,34.4c-0.25-0.94-1.56-1.49-2.92-1.18c-2.66,0.61-5.32,1.3-7.97,2.1c-1.36,0.4-2.29,1.54-2.08,2.5
			c0.38,1.87,0.77,3.73,1.14,5.6c0.19,0.96,1.5,1.37,2.9,0.95c2.76-0.82,5.53-1.55,8.31-2.18c1.42-0.32,2.36-1.32,2.1-2.27
			C380.41,38.08,379.92,36.24,379.42,34.4z"/>
		<path class="st2" d="M409.13,32.53c-0.37-0.9-1.77-1.75-3.12-1.84c-2.65-0.18-5.31-0.23-7.98-0.18c-1.36,0.03-2.19,0.83-1.87,1.75
			c0.64,1.8,1.26,3.6,1.9,5.4c0.32,0.92,1.73,1.6,3.15,1.56c2.76-0.09,5.52-0.07,8.26,0.07c1.4,0.07,2.22-0.57,1.85-1.48
			C410.6,36.06,409.87,34.3,409.13,32.53z"/>
		<path class="st2" d="M336.25,62.83c-0.06-0.97-1.19-1.11-2.53-0.26c-2.62,1.67-5.22,3.43-7.76,5.3c-1.29,0.95-2.33,2.55-2.33,3.53
			c0.01,1.91,0.02,3.81,0.02,5.72c0,0.98,1.08,0.97,2.43,0.02c2.64-1.87,5.33-3.64,8.06-5.3c1.4-0.85,2.49-2.31,2.43-3.28
			C336.46,66.63,336.35,64.73,336.25,62.83z"/>
		<path class="st2" d="M366.65,48.85c-0.19-0.96-1.49-1.36-2.9-0.86c-2.77,0.98-5.52,2.04-8.27,3.21c-1.4,0.59-2.43,1.88-2.3,2.85
			c0.25,1.89,0.51,3.78,0.75,5.67c0.12,0.97,1.41,1.24,2.87,0.65c2.86-1.17,5.73-2.27,8.62-3.26c1.48-0.52,2.52-1.68,2.33-2.63
			C367.38,52.59,367.01,50.72,366.65,48.85z"/>
		<path class="st2" d="M382.18,44.66c-0.25-0.94-1.62-1.48-3.03-1.14c-2.79,0.64-5.58,1.37-8.36,2.19c-1.42,0.41-2.41,1.56-2.2,2.52
			c0.38,1.87,0.77,3.73,1.14,5.6c0.19,0.96,1.55,1.36,3.02,0.93c2.89-0.85,5.79-1.61,8.7-2.28c1.49-0.34,2.48-1.36,2.21-2.3
			C383.18,48.34,382.68,46.5,382.18,44.66z"/>
		<path class="st2" d="M413.21,42.36c-0.37-0.9-1.81-1.73-3.22-1.8c-2.76-0.13-5.52-0.15-8.3-0.06c-1.42,0.05-2.31,0.87-1.97,1.79
			c0.64,1.8,1.26,3.6,1.9,5.39c0.32,0.93,1.78,1.59,3.25,1.52c2.88-0.13,5.74-0.15,8.6-0.05c1.46,0.05,2.33-0.61,1.94-1.51
			C414.66,45.88,413.94,44.12,413.21,42.36z"/>
		<path class="st2" d="M336.85,73.43c-0.06-0.97-1.24-1.11-2.64-0.25c-2.74,1.67-5.45,3.44-8.11,5.3c-1.36,0.95-2.43,2.55-2.43,3.53
			c0.01,1.91,0.02,3.81,0.02,5.72c0,0.98,1.13,0.97,2.53,0.02c2.75-1.87,5.56-3.64,8.41-5.31c1.46-0.85,2.6-2.31,2.54-3.29
			C337.07,77.25,336.96,75.34,336.85,73.43z"/>
		<path class="st2" d="M401.21,52.47c-0.31-0.93-1.78-1.58-3.26-1.42c-2.91,0.31-5.83,0.73-8.75,1.24c-1.49,0.26-2.48,1.26-2.21,2.2
			c0.52,1.84,1.02,3.67,1.54,5.51c0.26,0.94,1.73,1.46,3.28,1.17c3.02-0.55,6.06-0.99,9.07-1.35c1.54-0.18,2.53-1.04,2.2-1.97
			C402.45,56.08,401.83,54.28,401.21,52.47z"/>
		<path class="st2" d="M417.27,52.18c-0.37-0.9-1.85-1.71-3.32-1.76c-2.86-0.09-5.74-0.07-8.64,0.07c-1.48,0.07-2.41,0.91-2.08,1.83
			c0.64,1.8,1.26,3.6,1.9,5.39c0.32,0.92,1.83,1.57,3.36,1.49c2.99-0.17,5.97-0.23,8.92-0.18c1.51,0.03,2.42-0.65,2.04-1.55
			C418.73,55.7,418,53.94,417.27,52.18z"/>
		<path class="st2" d="M337.45,84.04c-0.06-0.97-1.29-1.1-2.76-0.25c-2.86,1.68-5.68,3.44-8.45,5.31c-1.41,0.95-2.54,2.55-2.53,3.53
			c0.01,1.91,0.02,3.81,0.02,5.72c0,0.98,1.17,0.97,2.63,0.01c2.86-1.87,5.78-3.64,8.76-5.32c1.52-0.86,2.71-2.32,2.65-3.3
			C337.67,87.86,337.56,85.95,337.45,84.04z"/>
		<path class="st2" d="M353.88,76c-0.12-0.97-1.46-1.22-2.97-0.55c-2.98,1.35-5.94,2.77-8.86,4.29c-1.49,0.77-2.64,2.21-2.58,3.2
			c0.12,1.9,0.25,3.8,0.37,5.71c0.06,0.98,1.36,1.11,2.9,0.33c3.03-1.53,6.1-2.96,9.19-4.32c1.58-0.69,2.76-2.01,2.64-2.98
			C354.35,79.79,354.12,77.89,353.88,76z"/>
		<path class="st2" d="M370.72,69.71c-0.19-0.96-1.6-1.35-3.15-0.82c-3.03,1.02-6.06,2.13-9.07,3.34c-1.54,0.61-2.67,1.91-2.54,2.88
			c0.25,1.89,0.51,3.78,0.75,5.67c0.12,0.97,1.52,1.23,3.11,0.62c3.12-1.21,6.26-2.35,9.42-3.39c1.61-0.54,2.76-1.72,2.57-2.68
			C371.45,73.46,371.09,71.58,370.72,69.71z"/>
		<path class="st2" d="M387.71,65.18c-0.25-0.94-1.72-1.45-3.28-1.08c-3.04,0.71-6.1,1.5-9.14,2.38c-1.56,0.44-2.65,1.62-2.46,2.58
			c0.38,1.87,0.77,3.73,1.14,5.6c0.19,0.96,1.66,1.33,3.27,0.88c3.17-0.91,6.33-1.73,9.49-2.46c1.62-0.37,2.71-1.42,2.46-2.37
			C388.7,68.87,388.22,67.02,387.71,65.18z"/>
		<path class="st2" d="M404.67,62.52c-0.31-0.92-1.83-1.56-3.37-1.38c-3.03,0.35-6.07,0.81-9.12,1.36c-1.55,0.28-2.6,1.29-2.34,2.23
			c0.52,1.84,1.02,3.67,1.54,5.51c0.26,0.94,1.78,1.44,3.39,1.14c3.16-0.58,6.31-1.07,9.45-1.46c1.6-0.2,2.63-1.08,2.32-2
			C405.91,66.13,405.29,64.33,404.67,62.52z"/>
		<path class="st2" d="M421.34,62c-0.37-0.9-1.9-1.69-3.41-1.72c-2.96-0.05-5.96,0.02-8.97,0.19c-1.54,0.09-2.52,0.94-2.19,1.86
			c0.64,1.8,1.26,3.6,1.9,5.39c0.32,0.92,1.88,1.56,3.46,1.45c3.1-0.21,6.2-0.31,9.25-0.31c1.56,0.01,2.52-0.69,2.13-1.59
			C422.79,65.52,422.07,63.76,421.34,62z"/>
	</g>
</g>
</svg>
